# xmcd
#
# Track frame offsets:
#	150
#	22035
#	39896
#	53889
#	71170
#	88127
#	105866
#	126205
#	137892
#	150903
#	164990
#
# Disc length: 2439 seconds
#
# Revision: 1
# Processed by: cddbd v1.5.1PL0 Copyright (c) Steve Scherf et al.
# Submitted via: CDex 1.50Beta5
#
DISCID=9209850b
DTITLE=NINI ROSSO - NINI ROSSO BEST Disc 2
DYEAR=1900
DGENRE=Other
TTITLE0=恋のアランフェス
TTITLE1=ソレアード
TTITLE2=さすらいのトランペット
TTITLE3=シューベルトのセレナーデ
TTITLE4=水曜日の夜
TTITLE5=母
TTITLE6=この素晴らしき世界
TTITLE7=真夜中のブルース
TTITLE8=オリーブの首飾り
TTITLE9=シバの女王
TTITLE10=ふたりの天使
EXTD=
EXTT0=
EXTT1=
EXTT2=
EXTT3=
EXTT4=
EXTT5=
EXTT6=
EXTT7=
EXTT8=
EXTT9=
EXTT10=
PLAYORDER=
